<svg width="200" height="200" viewBox="0 0 200 200" fill="none" xmlns="http://www.w3.org/2000/svg">
    <circle cx="100" cy="100" r="97.5" fill="#8EEAF0" stroke="black" stroke-width="5" />
    <g filter="url(#filter0_d_0_1)">
        <path
            d="M45.004 87C44.596 87 44.26 86.868 43.996 86.604C43.732 86.34 43.6 86.004 43.6 85.596V60.288C43.6 59.88 43.732 59.544 43.996 59.28C44.26 59.016 44.596 58.884 45.004 58.884C45.412 58.884 45.748 59.016 46.012 59.28C46.276 59.544 46.408 59.88 46.408 60.288V71.52H63.976V60.288C63.976 59.88 64.108 59.544 64.372 59.28C64.636 59.016 64.972 58.884 65.38 58.884C65.788 58.884 66.124 59.016 66.388 59.28C66.652 59.544 66.784 59.88 66.784 60.288V85.596C66.784 86.004 66.652 86.34 66.388 86.604C66.124 86.868 65.788 87 65.38 87C64.972 87 64.636 86.868 64.372 86.604C64.108 86.34 63.976 86.004 63.976 85.596V74.04H46.408V85.596C46.408 86.004 46.276 86.34 46.012 86.604C45.748 86.868 45.412 87 45.004 87ZM82.579 87.18C80.659 87.18 78.943 86.748 77.431 85.884C75.919 85.02 74.731 83.832 73.867 82.32C73.003 80.808 72.571 79.092 72.571 77.172C72.571 75.228 73.003 73.5 73.867 71.988C74.731 70.476 75.919 69.288 77.431 68.424C78.943 67.56 80.659 67.128 82.579 67.128C84.499 67.128 86.203 67.56 87.691 68.424C89.203 69.288 90.391 70.476 91.255 71.988C92.119 73.5 92.563 75.228 92.587 77.172C92.587 79.092 92.143 80.808 91.255 82.32C90.391 83.832 89.203 85.02 87.691 85.884C86.203 86.748 84.499 87.18 82.579 87.18ZM82.579 84.66C83.971 84.66 85.219 84.336 86.323 83.688C87.427 83.04 88.291 82.152 88.915 81.024C89.539 79.896 89.851 78.612 89.851 77.172C89.851 75.732 89.539 74.448 88.915 73.32C88.291 72.168 87.427 71.268 86.323 70.62C85.219 69.972 83.971 69.648 82.579 69.648C81.187 69.648 79.939 69.972 78.835 70.62C77.731 71.268 76.855 72.168 76.207 73.32C75.583 74.448 75.271 75.732 75.271 77.172C75.271 78.612 75.583 79.896 76.207 81.024C76.855 82.152 77.731 83.04 78.835 83.688C79.939 84.336 81.187 84.66 82.579 84.66ZM124.582 87C124.174 87 123.838 86.88 123.574 86.64C123.31 86.376 123.178 86.04 123.178 85.632V75.264C123.178 73.56 122.734 72.216 121.846 71.232C120.958 70.224 119.818 69.72 118.426 69.72C116.938 69.72 115.714 70.224 114.754 71.232C113.818 72.216 113.362 73.536 113.386 75.192H110.902C110.926 73.584 111.274 72.168 111.946 70.944C112.618 69.72 113.542 68.772 114.718 68.1C115.894 67.428 117.226 67.092 118.714 67.092C120.13 67.092 121.378 67.428 122.458 68.1C123.562 68.772 124.414 69.72 125.014 70.944C125.638 72.168 125.95 73.608 125.95 75.264V85.632C125.95 86.04 125.818 86.376 125.554 86.64C125.314 86.88 124.99 87 124.582 87ZM99.3823 87C98.9503 87 98.6023 86.88 98.3383 86.64C98.0983 86.376 97.9783 86.04 97.9783 85.632V68.712C97.9783 68.304 98.0983 67.968 98.3383 67.704C98.6023 67.44 98.9503 67.308 99.3823 67.308C99.7903 67.308 100.114 67.44 100.354 67.704C100.618 67.968 100.75 68.304 100.75 68.712V85.632C100.75 86.04 100.618 86.376 100.354 86.64C100.114 86.88 99.7903 87 99.3823 87ZM112.018 87C111.61 87 111.274 86.88 111.01 86.64C110.746 86.376 110.614 86.04 110.614 85.632V75.264C110.614 73.56 110.17 72.216 109.282 71.232C108.394 70.224 107.254 69.72 105.862 69.72C104.374 69.72 103.15 70.212 102.19 71.196C101.23 72.156 100.75 73.416 100.75 74.976H98.7703C98.8183 73.44 99.1543 72.084 99.7783 70.908C100.426 69.708 101.302 68.772 102.406 68.1C103.51 67.428 104.758 67.092 106.15 67.092C107.566 67.092 108.814 67.428 109.894 68.1C110.998 68.772 111.85 69.72 112.45 70.944C113.074 72.168 113.386 73.608 113.386 75.264V85.632C113.386 86.04 113.254 86.376 112.99 86.64C112.75 86.88 112.426 87 112.018 87ZM140.756 87.18C138.908 87.18 137.252 86.748 135.788 85.884C134.324 84.996 133.16 83.796 132.296 82.284C131.456 80.772 131.036 79.068 131.036 77.172C131.036 75.252 131.468 73.536 132.332 72.024C133.22 70.512 134.42 69.324 135.932 68.46C137.444 67.572 139.148 67.128 141.044 67.128C142.94 67.128 144.632 67.572 146.12 68.46C147.632 69.324 148.82 70.512 149.684 72.024C150.572 73.536 151.028 75.252 151.052 77.172L149.936 78.036C149.936 79.764 149.528 81.324 148.712 82.716C147.92 84.084 146.828 85.176 145.436 85.992C144.068 86.784 142.508 87.18 140.756 87.18ZM141.044 84.66C142.436 84.66 143.672 84.336 144.752 83.688C145.856 83.04 146.72 82.152 147.344 81.024C147.992 79.872 148.316 78.588 148.316 77.172C148.316 75.732 147.992 74.448 147.344 73.32C146.72 72.192 145.856 71.304 144.752 70.656C143.672 69.984 142.436 69.648 141.044 69.648C139.676 69.648 138.44 69.984 137.336 70.656C136.232 71.304 135.356 72.192 134.708 73.32C134.06 74.448 133.736 75.732 133.736 77.172C133.736 78.588 134.06 79.872 134.708 81.024C135.356 82.152 136.232 83.04 137.336 83.688C138.44 84.336 139.676 84.66 141.044 84.66ZM149.648 87C149.24 87 148.904 86.88 148.64 86.64C148.376 86.376 148.244 86.04 148.244 85.632V79.476L148.928 76.632L151.052 77.172V85.632C151.052 86.04 150.92 86.376 150.656 86.64C150.392 86.88 150.056 87 149.648 87Z"
            fill="#08115C" />
    </g>
    <g filter="url(#filter1_d_0_1)">
        <path
            d="M81.5954 137.36C79.6514 137.36 77.8274 136.988 76.1234 136.244C74.4434 135.5 72.9554 134.468 71.6594 133.148C70.3874 131.828 69.3914 130.304 68.6714 128.576C67.9754 126.824 67.6274 124.94 67.6274 122.924C67.6274 120.932 67.9754 119.072 68.6714 117.344C69.3914 115.592 70.3874 114.068 71.6594 112.772C72.9314 111.452 74.4074 110.42 76.0874 109.676C77.7914 108.908 79.6274 108.524 81.5954 108.524C83.3474 108.524 84.9194 108.776 86.3114 109.28C87.7034 109.76 89.0594 110.552 90.3794 111.656C90.5954 111.824 90.7274 112.016 90.7754 112.232C90.8474 112.424 90.8474 112.616 90.7754 112.808C90.7274 113 90.6434 113.168 90.5234 113.312C90.4754 113.576 90.3314 113.792 90.0914 113.96C89.8754 114.104 89.6114 114.176 89.2994 114.176C88.9874 114.176 88.6754 114.056 88.3634 113.816C87.4514 113 86.4674 112.4 85.4114 112.016C84.3554 111.608 83.0834 111.404 81.5954 111.404C80.0834 111.404 78.6554 111.716 77.3114 112.34C75.9914 112.94 74.8274 113.768 73.8194 114.824C72.8114 115.88 72.0194 117.104 71.4434 118.496C70.8914 119.888 70.6154 121.364 70.6154 122.924C70.6154 124.532 70.8914 126.032 71.4434 127.424C72.0194 128.816 72.8114 130.04 73.8194 131.096C74.8274 132.152 75.9914 132.98 77.3114 133.58C78.6554 134.18 80.0834 134.48 81.5954 134.48C82.8674 134.48 84.0794 134.264 85.2314 133.832C86.3834 133.4 87.4874 132.788 88.5434 131.996C88.8794 131.732 89.2154 131.624 89.5514 131.672C89.9114 131.72 90.2114 131.876 90.4514 132.14C90.7154 132.38 90.8474 132.716 90.8474 133.148C90.8474 133.364 90.8114 133.556 90.7394 133.724C90.6674 133.892 90.5594 134.072 90.4154 134.264C89.1674 135.344 87.7874 136.136 86.2754 136.64C84.7874 137.12 83.2274 137.36 81.5954 137.36ZM97.7048 124.796C97.7528 123.332 98.1248 122.024 98.8208 120.872C99.5408 119.696 100.477 118.772 101.629 118.1C102.805 117.428 104.089 117.092 105.481 117.092C106.705 117.092 107.629 117.272 108.253 117.632C108.901 117.992 109.141 118.484 108.973 119.108C108.901 119.444 108.745 119.684 108.505 119.828C108.289 119.972 108.025 120.044 107.713 120.044C107.425 120.044 107.089 120.02 106.705 119.972C105.289 119.804 104.029 119.9 102.925 120.26C101.845 120.596 100.981 121.16 100.333 121.952C99.6848 122.744 99.3608 123.692 99.3608 124.796H97.7048ZM97.8848 137C97.4048 137 97.0328 136.868 96.7688 136.604C96.5048 136.34 96.3728 135.968 96.3728 135.488V118.82C96.3728 118.34 96.5048 117.968 96.7688 117.704C97.0328 117.44 97.4048 117.308 97.8848 117.308C98.3648 117.308 98.7248 117.44 98.9648 117.704C99.2288 117.968 99.3608 118.34 99.3608 118.82V135.488C99.3608 135.968 99.2288 136.34 98.9648 136.604C98.7248 136.868 98.3648 137 97.8848 137ZM115.229 137C114.774 137 114.402 136.868 114.114 136.604C113.826 136.316 113.682 135.932 113.682 135.452V118.856C113.682 118.376 113.826 118.004 114.114 117.74C114.402 117.452 114.774 117.308 115.229 117.308C115.686 117.308 116.046 117.452 116.31 117.74C116.598 118.004 116.742 118.376 116.742 118.856V135.452C116.742 135.932 116.598 136.316 116.31 136.604C116.046 136.868 115.686 137 115.229 137ZM115.194 113.744C114.618 113.744 114.126 113.54 113.718 113.132C113.31 112.7 113.106 112.196 113.106 111.62C113.106 111.02 113.31 110.528 113.718 110.144C114.15 109.76 114.642 109.568 115.194 109.568C115.746 109.568 116.226 109.76 116.634 110.144C117.066 110.528 117.282 111.02 117.282 111.62C117.282 112.196 117.078 112.7 116.67 113.132C116.262 113.54 115.77 113.744 115.194 113.744ZM131.248 137C130 137 128.884 136.7 127.9 136.1C126.916 135.5 126.136 134.672 125.56 133.616C125.008 132.56 124.732 131.372 124.732 130.052V112.556C124.732 112.124 124.864 111.764 125.128 111.476C125.416 111.188 125.788 111.044 126.244 111.044C126.676 111.044 127.036 111.188 127.324 111.476C127.612 111.764 127.756 112.124 127.756 112.556V130.052C127.756 131.18 128.08 132.116 128.728 132.86C129.4 133.604 130.24 133.976 131.248 133.976H132.328C132.712 133.976 133.036 134.12 133.3 134.408C133.564 134.696 133.696 135.056 133.696 135.488C133.696 135.944 133.528 136.316 133.192 136.604C132.88 136.868 132.472 137 131.968 137H131.248ZM122.608 120.656C122.2 120.656 121.864 120.536 121.6 120.296C121.336 120.032 121.204 119.72 121.204 119.36C121.204 118.976 121.336 118.664 121.6 118.424C121.864 118.16 122.2 118.028 122.608 118.028H131.5C131.908 118.028 132.244 118.16 132.508 118.424C132.772 118.664 132.904 118.976 132.904 119.36C132.904 119.72 132.772 120.032 132.508 120.296C132.244 120.536 131.908 120.656 131.5 120.656H122.608ZM145.733 137C144.485 137 143.369 136.7 142.385 136.1C141.401 135.5 140.621 134.672 140.045 133.616C139.493 132.56 139.217 131.372 139.217 130.052V112.556C139.217 112.124 139.349 111.764 139.613 111.476C139.901 111.188 140.273 111.044 140.729 111.044C141.161 111.044 141.521 111.188 141.809 111.476C142.097 111.764 142.241 112.124 142.241 112.556V130.052C142.241 131.18 142.565 132.116 143.213 132.86C143.885 133.604 144.725 133.976 145.733 133.976H146.813C147.197 133.976 147.521 134.12 147.785 134.408C148.049 134.696 148.181 135.056 148.181 135.488C148.181 135.944 148.013 136.316 147.677 136.604C147.365 136.868 146.957 137 146.453 137H145.733ZM137.093 120.656C136.685 120.656 136.349 120.536 136.085 120.296C135.821 120.032 135.689 119.72 135.689 119.36C135.689 118.976 135.821 118.664 136.085 118.424C136.349 118.16 136.685 118.028 137.093 118.028H145.985C146.393 118.028 146.729 118.16 146.993 118.424C147.257 118.664 147.389 118.976 147.389 119.36C147.389 119.72 147.257 120.032 146.993 120.296C146.729 120.536 146.393 120.656 145.985 120.656H137.093ZM154.745 137C154.289 137 153.917 136.868 153.629 136.604C153.341 136.316 153.197 135.932 153.197 135.452V118.856C153.197 118.376 153.341 118.004 153.629 117.74C153.917 117.452 154.289 117.308 154.745 117.308C155.201 117.308 155.561 117.452 155.825 117.74C156.113 118.004 156.257 118.376 156.257 118.856V135.452C156.257 135.932 156.113 136.316 155.825 136.604C155.561 136.868 155.201 137 154.745 137ZM154.709 113.744C154.133 113.744 153.641 113.54 153.233 113.132C152.825 112.7 152.621 112.196 152.621 111.62C152.621 111.02 152.825 110.528 153.233 110.144C153.665 109.76 154.157 109.568 154.709 109.568C155.261 109.568 155.741 109.76 156.149 110.144C156.581 110.528 156.797 111.02 156.797 111.62C156.797 112.196 156.593 112.7 156.185 113.132C155.777 113.54 155.285 113.744 154.709 113.744Z"
            fill="#08115C" />
    </g>
    <defs>
        <filter id="filter0_d_0_1" x="39.6" y="58.884" width="115.452" height="36.296" filterUnits="userSpaceOnUse"
            color-interpolation-filters="sRGB">
            <feFlood flood-opacity="0" result="BackgroundImageFix" />
            <feColorMatrix in="SourceAlpha" type="matrix" values="0 0 0 0 0 0 0 0 0 0 0 0 0 0 0 0 0 0 127 0"
                result="hardAlpha" />
            <feOffset dy="4" />
            <feGaussianBlur stdDeviation="2" />
            <feComposite in2="hardAlpha" operator="out" />
            <feColorMatrix type="matrix" values="0 0 0 0 0 0 0 0 0 0 0 0 0 0 0 0 0 0 0.25 0" />
            <feBlend mode="normal" in2="BackgroundImageFix" result="effect1_dropShadow_0_1" />
            <feBlend mode="normal" in="SourceGraphic" in2="effect1_dropShadow_0_1" result="shape" />
        </filter>
        <filter id="filter1_d_0_1" x="63.6273" y="108.524" width="97.1698" height="36.836" filterUnits="userSpaceOnUse"
            color-interpolation-filters="sRGB">
            <feFlood flood-opacity="0" result="BackgroundImageFix" />
            <feColorMatrix in="SourceAlpha" type="matrix" values="0 0 0 0 0 0 0 0 0 0 0 0 0 0 0 0 0 0 127 0"
                result="hardAlpha" />
            <feOffset dy="4" />
            <feGaussianBlur stdDeviation="2" />
            <feComposite in2="hardAlpha" operator="out" />
            <feColorMatrix type="matrix" values="0 0 0 0 0 0 0 0 0 0 0 0 0 0 0 0 0 0 0.25 0" />
            <feBlend mode="normal" in2="BackgroundImageFix" result="effect1_dropShadow_0_1" />
            <feBlend mode="normal" in="SourceGraphic" in2="effect1_dropShadow_0_1" result="shape" />
        </filter>
    </defs>
</svg>